<svg width="1080" height="1080" viewBox="0 0 1080 1080" fill="none" xmlns="http://www.w3.org/2000/svg">
<g clip-path="url(#clip0_92_2)">
<path fill-rule="evenodd" clip-rule="evenodd" d="M269.709 0C164.601 299.789 65.1757 622.763 60.1822 776.631C56.3598 894.414 113.199 983.523 182.629 1080H352.002C213.134 906.465 196.647 673.407 321.196 566.053C416.254 484.12 412.185 549.309 407.117 630.511C404.716 668.981 402.091 711.046 409.676 742.762C433.27 841.424 507.003 969.538 644.146 897.382C753.86 839.657 855.022 735.89 891.888 691.222C926.068 643.371 1001.92 572.206 1080 545.934V500.963C951.55 531.351 836.193 663.216 773.916 742.762C709.523 813.936 577.492 886.191 564.515 605.813C548.293 255.341 487.833 106.611 212.072 605.813C237.436 450.796 283.737 215.465 342.034 0H269.709Z" fill="#DBC07A"/>
</g>
<defs>
<clipPath id="clip0_92_2">
<rect width="1080" height="1080" fill="white"/>
</clipPath>
</defs>
</svg>
